<svg id="Layer_1" data-name="Layer 1" xmlns="http://www.w3.org/2000/svg" viewBox="0 0 63.51 18"><defs><style>.cls-1,.cls-2{fill:#642869;}.cls-2{font-size:17px;font-family:AvenirNext-Regular, Avenir Next;}</style></defs><title>message_icon2</title><path class="cls-1" d="M18.74,16.44l-1.45-3.93A9,9,0,1,0,14.64,16l3.27,1.28C18.67,17.54,19,17.17,18.74,16.44ZM4.6,10.13a1.15,1.15,0,0,1,0-2.27,1.15,1.15,0,1,1,0,2.3Zm4.24,0a1.15,1.15,0,0,1,0-2.27,1.15,1.15,0,1,1,0,2.3h0Zm4.24,0A1.15,1.15,0,1,1,14.23,9,1.14,1.14,0,0,1,13.08,10.13Z"/><text class="cls-2" transform="translate(32.18 14.64)">102</text></svg>